<?xml version="1.0" encoding="utf-8"?>
<!-- Generator: Adobe Illustrator 24.3.0, SVG Export Plug-In . SVG Version: 6.00 Build 0)  -->
<svg version="1.1" id="Layer_1" xmlns="http://www.w3.org/2000/svg" xmlns:xlink="http://www.w3.org/1999/xlink" x="0px" y="0px"
	 viewBox="0 0 240 74" style="enable-background:new 0 0 240 74;" xml:space="preserve">
<style type="text/css">
	.st0{fill:#E52322;}
	.st1{fill:#2A256C;}
</style>
<g id="LOGO" transform="translate(-1 -0.4)">
	<path id="Path_102" class="st0" d="M33.1,70.2c-2.9,0-5.9-0.5-8.7-1.4L54.5,32l6.1,6.1v4.5c0.1,15.2-12.1,27.5-27.2,27.6
		C33.3,70.2,33.2,70.2,33.1,70.2 M5.4,43.5l9.2-11.3l17.7,21.5l0,0L21.1,67.4C11.9,62.9,5.9,53.7,5.4,43.5 M34.6,50.9L22.8,36.7
		l11.8-14.1l11.6,14.3L34.6,50.9z M60.8,5v28l-6.3-6.3l-6,7.2L34.6,17l-14,16.9l-5.9-7.2L5.4,38V5H60.8z M2,1.6v40.9
		c0.2,17.2,14.3,30.9,31.4,30.7C50.3,73,64,59.4,64.1,42.5V1.6H2z"/>
	<rect id="Rectangle_206" x="8.9" y="8.8" class="st1" width="3.4" height="12.2"/>
	<path id="Path_103" class="st0" d="M21.4,21l-3.9-6.1h-1.1l3.5-6.2h-2.6l-3.5,6.2l3.8,6.1L21.4,21z"/>
	<path id="Path_104" class="st1" d="M81.5,68.6c-0.5,0.4-1.1,0.7-1.8,0.6c-0.8,0-1.6-0.4-2.1-1.1c-0.1,0.5-0.1,0.7-0.3,0.9h-1.4
		c0.2-0.6,0.3-1.3,0.2-1.9v-7.9c0-0.7-0.1-1.4-0.3-2l1.6-0.4c0.1,0.6,0.2,1.2,0.2,1.8v1.9c0,0.3,0,0.6-0.1,0.8h0.1
		c0.6-0.6,1.4-0.9,2.2-0.9c2,0,3.2,1.6,3.2,4.2C83.2,66.1,82.6,67.6,81.5,68.6z M81,62.8c-0.3-0.5-0.8-0.9-1.4-0.8
		c-0.5,0-0.9,0.1-1.3,0.5c-0.2,0.1-0.4,0.3-0.5,0.5v4.2c0.4,0.5,1.1,0.9,1.8,0.9c0.5,0,1.1-0.3,1.4-0.7c0.4-0.8,0.5-1.6,0.5-2.5
		C81.5,64.1,81.3,63.4,81,62.8L81,62.8z"/>
	<path id="Path_105" class="st1" d="M88.7,69.3c-0.2,1-0.7,1.8-1.4,2.5c-0.4,0.4-1,0.6-1.5,0.7l-0.5-1c0.6-0.2,1.1-0.5,1.4-0.9
		c0.3-0.5,0.5-1,0.6-1.6l-0.6,0.1c-0.2-0.9-0.4-1.8-0.8-2.7l-1.8-5.4l1.5-0.4l1.5,5.2c0.2,0.6,0.3,1.3,0.5,1.9h0.1
		c0.1-0.5,0.4-1.3,0.5-2.1l1.4-4.9h1.7L88.7,69.3z"/>
	<path id="Path_106" class="st1" d="M97,69V57.7h1.6V69H97z M102.7,69l-4.1-6.1l4-5.3h2l-4.2,5.3l4.3,6.1H102.7z"/>
	<path id="Path_107" class="st1" d="M112,69.4c-0.5-0.2-0.9-0.6-1.1-1.2c-0.6,0.7-1.4,1.1-2.4,1.1c-1.3,0.2-2.4-0.7-2.6-1.9
		c0-0.2,0-0.4,0-0.5c0-1.9,1.5-2.9,4.2-2.9h0.5v-0.5c0-1-0.1-1.6-1.3-1.6c-0.9,0.1-1.8,0.4-2.5,0.9l-0.7-1.1c1-0.7,2.2-1,3.4-1.1
		c1-0.1,2,0.4,2.4,1.4c0.1,0.5,0.2,1,0.2,1.4c0,0.6-0.1,1.9-0.1,3.1c0,1.2,0,1.6,0.6,2L112,69.4z M110.2,64.9
		c-1.2,0-1.8,0.2-2.2,0.6c-0.3,0.3-0.5,0.7-0.5,1.2c0,0.9,0.5,1.4,1.3,1.4c0.7,0,1.4-0.4,1.7-1.1l0.1-2.1
		C110.5,65,110.3,64.9,110.2,64.9L110.2,64.9z"/>
	<path id="Path_108" class="st1" d="M118.7,69.2c-0.8,0-1.6-0.3-2.2-0.8v3.8l-1.4,0.4v-9.8c0-0.7-0.1-1.3-0.2-2l1.4-0.3
		c0.1,0.4,0.1,0.8,0.1,1.2c0.5-0.8,1.4-1.2,2.4-1.2c1.7,0,3.1,1.4,3.1,4.2C121.9,67.3,120.8,69.2,118.7,69.2z M118.5,61.8
		c-0.8,0-1.5,0.4-2,1V67c0.4,0.5,1.1,0.8,1.7,0.9c1.4,0,1.9-1,1.9-3C120.2,62.9,119.9,61.9,118.5,61.8L118.5,61.8z"/>
	<path id="Path_109" class="st1" d="M125.9,69.2c-0.5,0.1-1-0.2-1.3-0.6c-0.3-0.4-0.3-0.6-0.3-1.4v-7.5c0-0.8-0.1-1.6-0.2-2.4
		l1.5-0.4c0.2,0.8,0.2,1.6,0.2,2.4v7.7c0,0.5,0.1,0.9,0.3,1c0.1,0.1,0.3,0.1,0.5,0.1l0.3,0.9C126.6,69.1,126.3,69.2,125.9,69.2z"/>
	<path id="Path_110" class="st1" d="M134.3,69.4c-0.5-0.2-0.9-0.6-1.1-1.2c-0.6,0.7-1.4,1.1-2.4,1.1c-1.3,0.2-2.4-0.7-2.6-1.9
		c0-0.2,0-0.4,0-0.5c0-1.9,1.5-2.9,4.2-2.9h0.5v-0.5c0-1-0.1-1.6-1.3-1.6c-0.9,0.1-1.8,0.4-2.5,0.9l-0.7-1.1c1-0.7,2.2-1,3.4-1.1
		c1-0.1,2,0.4,2.4,1.4c0.1,0.5,0.2,1,0.2,1.4c0,0.6-0.1,1.9-0.1,3.1c0,1.2,0,1.6,0.6,2L134.3,69.4z M132.5,64.9
		c-1.2,0-1.8,0.2-2.2,0.6c-0.3,0.3-0.5,0.7-0.5,1.2c0,0.9,0.5,1.4,1.3,1.4c0.7,0,1.4-0.4,1.7-1.1l0.1-2.1
		C132.8,65,132.6,64.9,132.5,64.9L132.5,64.9z"/>
	<path id="Path_111" class="st1" d="M142,69v-5.5c0.1-0.4,0-0.9-0.3-1.3c-0.2-0.2-0.5-0.4-0.8-0.4c-0.8,0.1-1.5,0.5-2.1,1.1V69h-1.5
		v-6.2c0-0.7-0.1-1.3-0.3-2l1.4-0.4c0.2,0.4,0.3,0.8,0.3,1.3c0.3-0.3,0.7-0.6,1.1-0.8c0.5-0.3,1-0.4,1.5-0.5
		c0.8-0.1,1.6,0.4,1.9,1.2c0.1,0.3,0.2,0.7,0.2,1v6.3L142,69L142,69z"/>
	<path id="Path_112" class="st1" d="M150.1,69V57.7h1.6V69H150.1z"/>
	<path id="Path_113" class="st1" d="M159.3,69v-5.5c0.1-0.4,0-0.9-0.3-1.3c-0.2-0.2-0.5-0.4-0.8-0.4c-0.8,0.1-1.5,0.5-2.1,1.1V69
		h-1.5v-6.2c0-0.7-0.1-1.3-0.3-2l1.4-0.4c0.2,0.4,0.3,0.8,0.3,1.3c0.3-0.3,0.7-0.6,1.1-0.8c0.5-0.3,1-0.4,1.5-0.5
		c0.8-0.1,1.6,0.4,1.9,1.2c0.1,0.3,0.2,0.7,0.2,1v6.3L159.3,69L159.3,69z"/>
	<path id="Path_114" class="st1" d="M166.8,61.9h-1.6v5c0,1,0.3,1.4,1.1,1.4c0.3,0,0.6-0.1,0.8-0.2l0.2,0.9c-0.5,0.3-1,0.4-1.5,0.4
		c-0.5,0-1-0.1-1.4-0.5c-0.4-0.3-0.5-0.5-0.5-1.6v-5.3h-1v-1.1h1c0-0.7,0-1.4,0.1-2.1l1.5-0.4c-0.1,0.8-0.2,1.6-0.2,2.5h2
		L166.8,61.9z"/>
	<path id="Path_115" class="st1" d="M170.3,65.2v0.2c-0.1,0.6,0.1,1.1,0.4,1.6c0.4,0.6,1.1,1,1.9,1c0.7,0,1.5-0.3,2-0.8l0.5,0.9
		c-0.8,0.7-1.8,1.1-2.8,1.1c-2.3,0-3.7-1.6-3.7-4.3c-0.1-1.1,0.3-2.3,1-3.2c0.6-0.8,1.5-1.2,2.5-1.2c0.8,0,1.7,0.3,2.3,0.9
		c0.8,1,1.2,2.3,1,3.5v0.3L170.3,65.2L170.3,65.2z M173.2,62.2c-0.3-0.4-0.7-0.6-1.2-0.5c-1.2,0-1.7,0.9-1.7,2.5h3.4
		C173.8,63.4,173.6,62.8,173.2,62.2L173.2,62.2z"/>
	<path id="Path_116" class="st1" d="M181.2,62.1c-0.1-0.1-0.3-0.1-0.5-0.1c-0.9,0-1.7,0.8-1.7,1.7v5.3h-1.5V63
		c0-0.7-0.1-1.4-0.3-2.1l1.4-0.4c0.2,0.4,0.3,0.8,0.3,1.3v0.1c0.4-0.9,1.3-1.4,2.3-1.4c0.2,0,0.4,0,0.5,0.1L181.2,62.1z"/>
	<path id="Path_117" class="st1" d="M187.9,69v-5.5c0.1-0.4,0-0.9-0.3-1.3c-0.2-0.2-0.5-0.4-0.8-0.4c-0.8,0.1-1.5,0.5-2.1,1.1V69
		h-1.5v-6.2c0-0.7-0.1-1.3-0.3-2l1.4-0.4c0.2,0.4,0.3,0.8,0.3,1.3c0.3-0.3,0.7-0.6,1.1-0.8c0.5-0.3,1-0.4,1.5-0.5
		c0.8-0.1,1.6,0.4,1.9,1.2c0.1,0.3,0.2,0.7,0.2,1v6.3L187.9,69L187.9,69z"/>
	<path id="Path_118" class="st1" d="M197.9,69.4c-0.5-0.2-0.9-0.6-1.1-1.2c-0.6,0.7-1.4,1.1-2.4,1.1c-1.3,0.2-2.4-0.7-2.6-1.9
		c0-0.2,0-0.4,0-0.5c0-1.9,1.5-2.9,4.2-2.9h0.5v-0.5c0-1-0.1-1.6-1.3-1.6c-0.9,0.1-1.8,0.4-2.5,0.9l-0.7-1.1c1-0.7,2.2-1,3.4-1.1
		c1-0.1,2,0.4,2.4,1.4c0.1,0.5,0.2,1,0.2,1.4c0,0.6-0.1,1.9-0.1,3.1c0,1.2,0,1.6,0.6,2L197.9,69.4z M196.1,64.9
		c-1.2,0-1.8,0.2-2.2,0.6c-0.3,0.3-0.5,0.7-0.5,1.2c0,0.9,0.5,1.4,1.3,1.4c0.7,0,1.4-0.4,1.7-1.1l0.1-2.1
		C196.4,65,196.2,64.9,196.1,64.9L196.1,64.9z"/>
	<path id="Path_119" class="st1" d="M204,61.9h-1.6v5c0,1,0.3,1.4,1.1,1.4c0.3,0,0.6-0.1,0.8-0.2l0.2,0.9c-0.5,0.3-1,0.4-1.5,0.4
		c-0.5,0-1-0.1-1.4-0.5c-0.4-0.3-0.5-0.5-0.5-1.6v-5.3h-1v-1.1h1c0-0.7,0-1.4,0.1-2.1l1.5-0.4c-0.1,0.8-0.2,1.6-0.2,2.5h2L204,61.9z
		"/>
	<path id="Path_120" class="st1" d="M207.1,59.3c-0.6,0-1.1-0.5-1.1-1.1c0-0.6,0.5-1.1,1.1-1.1c0.6,0,1.1,0.5,1.1,1.1
		C208.2,58.8,207.8,59.3,207.1,59.3C207.2,59.3,207.1,59.3,207.1,59.3z M206.3,69v-8.2l1.5-0.3V69L206.3,69z"/>
	<path id="Path_121" class="st1" d="M213.8,69.3c-2.2,0-3.5-1.7-3.5-4.3s1.4-4.3,3.5-4.3c2.5,0,3.6,1.9,3.6,4.4
		c0.3,2.1-1.2,4-3.2,4.2C214.1,69.3,213.9,69.3,213.8,69.3z M213.8,61.7c-1.4,0-1.9,0.9-1.9,3c0,2.5,0.6,3.4,1.9,3.4
		c1.2,0,1.9-0.9,1.9-3.1C215.7,62.5,215,61.7,213.8,61.7L213.8,61.7z"/>
	<path id="Path_122" class="st1" d="M224.4,69v-5.5c0.1-0.4,0-0.9-0.3-1.3c-0.2-0.2-0.5-0.4-0.8-0.4c-0.8,0.1-1.5,0.5-2.1,1.1V69
		h-1.5v-6.2c0-0.7-0.1-1.3-0.3-2l1.4-0.4c0.2,0.4,0.3,0.8,0.3,1.3c0.3-0.3,0.7-0.6,1.1-0.8c0.5-0.3,1-0.4,1.5-0.5
		c0.8-0.1,1.6,0.4,1.9,1.2c0.1,0.3,0.2,0.7,0.2,1v6.3L224.4,69L224.4,69z"/>
	<path id="Path_123" class="st1" d="M234.4,69.4c-0.5-0.2-0.9-0.6-1.1-1.2c-0.6,0.7-1.4,1.1-2.4,1.1c-1.3,0.2-2.4-0.7-2.6-1.9
		c0-0.2,0-0.4,0-0.5c0-1.9,1.5-2.9,4.2-2.9h0.5v-0.5c0-1-0.1-1.6-1.3-1.6c-0.9,0.1-1.8,0.4-2.5,0.9l-0.7-1.1c1-0.7,2.2-1,3.4-1.1
		c1-0.1,2,0.4,2.4,1.4c0.1,0.5,0.2,1,0.2,1.4c0,0.6-0.1,1.9-0.1,3.1c0,1.2,0,1.6,0.6,2L234.4,69.4z M232.5,64.9
		c-1.2,0-1.8,0.2-2.2,0.6c-0.3,0.3-0.5,0.7-0.5,1.2c0,0.9,0.5,1.4,1.3,1.4c0.7,0,1.4-0.4,1.7-1.1l0.1-2.1
		C232.8,65,232.6,64.9,232.5,64.9L232.5,64.9z"/>
	<path id="Path_124" class="st1" d="M239,69.2c-0.5,0.1-1-0.2-1.3-0.6c-0.3-0.4-0.3-0.6-0.3-1.4v-7.5c0-0.8-0.1-1.6-0.2-2.4l1.5-0.4
		c0.2,0.8,0.2,1.6,0.2,2.4v7.7c0,0.5,0.1,0.9,0.3,1c0.1,0.1,0.3,0.1,0.5,0.1l0.3,0.9C239.7,69.1,239.4,69.2,239,69.2z"/>
	<path id="Path_125" class="st0" d="M92,4.7l10.3,27.1h-5.7l-2.5-6.5H84l-2.4,6.5H76L86.3,4.7H92z M85.8,20.4h6.6l-3.3-9L85.8,20.4z
		"/>
	<path id="Path_126" class="st0" d="M105.6,4.7h5.6v22.1h12.6v5h-18.2V4.7z"/>
	<path id="Path_127" class="st0" d="M133.5,22.4v9.4h-5.6V4.7h11.1c5.7,0,9.5,3.1,9.5,8.9c0,5.7-3.8,8.8-9.5,8.8L133.5,22.4z
		 M138.5,9.5h-5.1v8.1h5.1c2.1,0.3,4-1.2,4.3-3.3c0-0.2,0-0.5,0-0.7c0.1-2.1-1.4-4-3.6-4.1C139.1,9.4,138.8,9.5,138.5,9.5z"/>
	<path id="Path_128" class="st0" d="M164,4.7l10.3,27.1h-5.7l-2.5-6.5H156l-2.4,6.5H148l10.3-27.1H164z M157.8,20.4h6.6l-3.3-9
		L157.8,20.4z"/>
	<path id="Path_129" class="st0" d="M177.6,4.7h9.6c8.2,0,13.3,5.3,13.3,13.5s-5.2,13.5-13.3,13.5h-9.6V4.7z M186.9,26.8
		c5.2,0,8-3.3,8-8.5s-2.8-8.6-8-8.6h-3.7v17.1H186.9z"/>
	<path id="Path_130" class="st0" d="M210.1,31.7h-5.6v-27h5.6V31.7z"/>
	<path id="Path_131" class="st0" d="M229.2,4.7l10.3,27.1h-5.7l-2.5-6.5h-10.1l-2.4,6.5h-5.6l10.3-27.1H229.2z M223.1,20.4h6.6
		l-3.3-9L223.1,20.4z"/>
	<path id="Path_132" class="st0" d="M75.8,38.6h1.5v10.2h5.9v1.4h-7.4V38.6z"/>
	<path id="Path_133" class="st0" d="M90.3,38.6l4.5,11.6h-1.5L92,46.6h-4.8L86,50.2h-1.5L89,38.6H90.3z M87.8,45.4h3.8l-1.9-5
		L87.8,45.4z"/>
	<path id="Path_134" class="st0" d="M105.7,50.2h-1.1l-6.5-9.2v9.2h-1.5V38.6h1.4l6.2,8.9v-8.9h1.4L105.7,50.2z"/>
	<path id="Path_135" class="st0" d="M113.7,45.7v-1.3h4.2v0.8c0.2,2.6-1.7,4.8-4.3,5.1c-0.2,0-0.3,0-0.5,0c-3-0.1-5.4-2.6-5.4-5.6
		c0-0.1,0-0.3,0-0.4c-0.3-3,1.9-5.7,4.9-6c0.1,0,0.2,0,0.3,0c2.2-0.1,4.1,1.4,4.6,3.5h-1.4c-0.4-1.4-1.6-2.3-3.1-2.3
		c-2.3,0-3.8,1.8-3.8,4.6s1.5,4.6,3.8,4.6c1.7,0.1,3.2-1.2,3.3-3c0-0.1,0-0.2,0-0.3L113.7,45.7L113.7,45.7z"/>
	<path id="Path_136" class="st0" d="M119.9,45.5v-7h1.4v6.8c0,2.5,1.2,3.6,3.1,3.6c1.9,0,3.1-1.2,3.1-3.6v-6.8h1.5v7.1
		c0.3,2.4-1.4,4.5-3.8,4.8c-0.2,0-0.5,0-0.7,0c-2.5,0.1-4.5-1.8-4.6-4.3C119.8,46,119.8,45.8,119.9,45.5z"/>
	<path id="Path_137" class="st0" d="M135.8,38.6l4.5,11.6h-1.5l-1.4-3.5h-4.8l-1.4,3.5h-1.5l4.5-11.6H135.8z M133.2,45.5h3.8l-1.9-5
		L133.2,45.5z"/>
	<path id="Path_138" class="st0" d="M146.8,45.7v-1.3h4.2v0.8c0.2,2.6-1.7,4.8-4.3,5.1c-0.2,0-0.3,0-0.5,0c-3-0.1-5.4-2.6-5.4-5.6
		c0-0.1,0-0.3,0-0.4c-0.3-3,1.9-5.7,4.9-6c0.1,0,0.2,0,0.3,0c2.2-0.1,4.1,1.4,4.6,3.5h-1.5c-0.4-1.4-1.6-2.3-3.1-2.3
		c-2.3,0-3.8,1.8-3.8,4.6s1.5,4.6,3.8,4.6c1.7,0.1,3.2-1.2,3.3-3c0-0.1,0-0.2,0-0.3L146.8,45.7L146.8,45.7z"/>
	<path id="Path_139" class="st0" d="M160.5,38.6v1.4h-5.9v3.7h5.3V45h-5.3v4h5.9v1.4H153V38.6H160.5z"/>
	<path id="Path_140" class="st0" d="M167.6,47.2c0.5,1.2,1.7,2,3,1.9c1.5,0,2.5-0.7,2.5-2c0-0.9-0.5-1.5-1.8-1.8l-2.1-0.5
		c-1.6-0.5-2.8-1.3-2.8-3c0.1-1.9,1.6-3.3,3.5-3.3c0.1,0,0.2,0,0.3,0c2-0.2,3.8,1.1,4.3,3.1h-1.4c-0.4-1.1-1.5-1.9-2.7-1.8
		c-1.4,0-2.5,0.7-2.5,1.9c0,1,0.6,1.4,1.8,1.8l2,0.5c1.8,0.5,2.9,1.4,2.9,3.1c-0.1,1.9-1.7,3.5-3.7,3.4c-0.1,0-0.2,0-0.3,0
		c-2.1,0.2-3.9-1.2-4.4-3.2L167.6,47.2L167.6,47.2z"/>
	<path id="Path_141" class="st0" d="M181.2,38.4c2.2-0.1,4.1,1.4,4.5,3.5h-1.4c-0.4-1.4-1.6-2.3-3.1-2.3c-2.2,0-3.7,1.9-3.7,4.6
		s1.4,4.6,3.7,4.6c1.4,0,2.7-0.9,3.1-2.3h1.4c-0.4,2.2-2.3,3.7-4.5,3.6c-2.9,0-5.2-2.4-5.2-6c-0.3-2.9,1.8-5.5,4.7-5.9
		C180.9,38.4,181,38.4,181.2,38.4z"/>
	<path id="Path_142" class="st0" d="M197.3,38.6v11.6h-1.5v-5.3h-6.5v5.3h-1.5V38.6h1.4v5h6.5v-5H197.3z"/>
	<path id="Path_143" class="st0" d="M204.6,50.3c-3-0.1-5.4-2.5-5.3-5.5c0-0.2,0-0.3,0-0.5c-0.4-2.9,1.7-5.6,4.6-5.9
		c2.9-0.4,5.6,1.7,5.9,4.6c0.1,0.4,0.1,0.9,0,1.4c0.3,3-1.8,5.6-4.8,6C204.9,50.3,204.7,50.3,204.6,50.3z M204.6,39.7
		c-2.3,0-3.7,1.9-3.7,4.6s1.5,4.6,3.7,4.6c2.3,0,3.8-1.9,3.8-4.6S206.8,39.7,204.6,39.7z"/>
	<path id="Path_144" class="st0" d="M216.5,50.3c-3-0.1-5.4-2.5-5.3-5.5c0-0.2,0-0.3,0-0.5c-0.4-2.9,1.7-5.6,4.6-5.9
		c2.9-0.4,5.6,1.7,5.9,4.6c0.1,0.4,0.1,0.9,0,1.4c0.3,3-1.8,5.6-4.8,5.9C216.8,50.3,216.7,50.3,216.5,50.3z M216.5,39.7
		c-2.3,0-3.7,1.9-3.7,4.6s1.5,4.6,3.7,4.6c2.3,0,3.8-1.9,3.8-4.6S218.8,39.7,216.5,39.7z"/>
	<path id="Path_145" class="st0" d="M223.9,38.6h1.4v10.2h5.9v1.4h-7.4L223.9,38.6L223.9,38.6z"/>
	<path id="Path_146" class="st0" d="M232.9,47.2c0.5,1.2,1.7,2,3,1.9c1.5,0,2.5-0.7,2.5-2c0-0.9-0.5-1.5-1.8-1.8l-2.1-0.5
		c-1.6-0.5-2.8-1.3-2.8-3c0.1-1.9,1.6-3.3,3.5-3.3c0.1,0,0.2,0,0.3,0c2-0.2,3.8,1.1,4.3,3.1h-1.4c-0.4-1.1-1.5-1.9-2.7-1.8
		c-1.4,0-2.4,0.7-2.4,1.9c0,1,0.6,1.4,1.8,1.8l2,0.5c1.8,0.5,2.9,1.4,2.9,3.1c-0.1,1.9-1.7,3.5-3.7,3.4c-0.1,0-0.2,0-0.3,0
		c-2.1,0.2-3.9-1.2-4.4-3.2L232.9,47.2L232.9,47.2z"/>
</g>
</svg>
