<svg width="116" height="32" viewBox="0 0 116 32" fill="none" xmlns="http://www.w3.org/2000/svg">
<path d="M13.9497 0.555288H7.73555V31.4863H13.9497V0.555288Z" fill="#FADC64"/>
<path d="M3.90682 0.555288H0V31.4863H3.90682V0.555288Z" fill="#FFF0B4"/>
<path d="M87.7743 9.04622L81.967 9.03022L81.9774 5.27354C81.3619 5.06554 80.7091 4.88715 80.0212 4.73755C79.3317 4.58876 78.6064 4.51276 77.8444 4.51036C76.0554 4.50556 74.6685 4.87035 73.6844 5.60393C72.6996 6.3383 72.2059 7.26467 72.2027 8.38464C72.2011 9.00302 72.3023 9.5198 72.5061 9.93259C72.7099 10.3462 73.0761 10.7006 73.6032 10.9966C74.1303 11.2925 74.862 11.5677 75.8007 11.8205C76.7385 12.0741 77.94 12.3789 79.4057 12.7365C80.7537 13.0653 82.0212 13.4509 83.2075 13.8965C84.3938 14.342 85.4184 14.9124 86.2823 15.6068C87.1453 16.302 87.8245 17.158 88.3205 18.1763C88.8157 19.1947 89.0617 20.4259 89.0577 21.8698C89.049 25.0521 87.9638 27.54 85.8038 29.3304C83.643 31.1223 80.4806 32.0119 76.3158 31.9999C74.6144 31.9951 72.8628 31.8719 71.0594 31.6311C69.2561 31.3903 67.3286 30.9287 65.2784 30.2447L65.3015 22.0674L71.7242 22.0858L71.7131 26.1521C72.5332 26.4793 73.3835 26.6953 74.2625 26.8C75.1422 26.9064 76.0069 26.96 76.858 26.9624C78.7935 26.968 80.1947 26.5745 81.0626 25.7809C81.9296 24.9873 82.3651 24.0017 82.3683 22.8226C82.3699 22.2634 82.2536 21.7906 82.0204 21.4066C81.7863 21.0234 81.4065 20.6754 80.8794 20.3651C80.3524 20.0539 79.6717 19.7651 78.8365 19.4971C78.0013 19.2299 76.9686 18.9171 75.7378 18.5603C74.7115 18.2627 73.6056 17.9571 72.4193 17.6451C71.2322 17.3324 70.1263 16.8652 69.1016 16.2436C68.0762 15.622 67.2211 14.7652 66.5356 13.6725C65.8493 12.5805 65.5085 11.1054 65.5141 9.24941C65.5181 7.83506 65.7856 6.5615 66.3166 5.42793C66.8477 4.29517 67.6351 3.3248 68.6781 2.51763C69.7211 1.71045 70.9981 1.08727 72.5109 0.649685C74.022 0.211299 75.7457 -0.00549407 77.6812 0.000105754C79.5578 0.00570557 81.3834 0.158501 83.1573 0.457691C84.9304 0.757681 86.4765 1.16007 87.795 1.66405L87.7743 9.04542V9.04622Z" fill="#0066B4"/>
<path d="M60.0346 0.538491V9.6438L54.5076 9.6502L54.4869 5.05355L46.7154 5.06235L46.725 13.1957L53.7894 13.1877L53.8086 17.9619L46.7306 17.9699L46.7409 26.9872L54.5737 26.9784L54.553 21.7626L60.0203 21.7562L60.0346 31.4903L36.9878 31.4935V26.9984L40.3174 26.9952L40.2919 5.07115L36.995 5.05595L36.9878 0.56649L60.0346 0.540091V0.538491Z" fill="#0066B4"/>
<path d="M105.5 0.550486V5.06074L102.745 5.05114L102.756 26.9304L110.658 26.9264L110.655 21.4122H116V31.4927L93.5662 31.4879L93.5798 26.9352L96.3457 26.9336L96.3345 5.05434L93.5686 5.05594L93.5662 0.556886L105.5 0.551286V0.550486Z" fill="#0066B4"/>
<path d="M30.8009 0.555288H17.8973V31.4863H30.8009V0.555288Z" fill="#FAC800"/>
</svg>
