<svg xmlns="http://www.w3.org/2000/svg" width="243.971" height="41.059" viewBox="0 0 243.971 41.059"><defs><style>.a{fill:#fff;}</style></defs><g transform="translate(0.1)"><g transform="translate(-0.1)"><path class="a" d="M95.729,26.169V16.127c1.264,1.86,6.769,10.116,6.769,10.116h3.5V10.474h-3.942V20.516c-1.264-1.934-6.62-9.967-6.62-9.967H91.787v15.62ZM75.5,22.227h5.43l1.636,4.017h4.463l-6.917-15.62H77.654l-7.066,15.62h3.124Zm2.826-6.471,1.711,4.165h-3.5Zm-11.232,7.81h-5.5V10.474H57.72V26.169h9.372ZM4.389,10.474H0V26.169H4.389ZM23.8,22.227h5.43l1.636,4.017h4.463l-6.917-15.62h-2.38l-7.066,15.62h3.124Zm2.826-6.471,1.711,4.165h-3.5Zm17.926,4.909h1.86a7.625,7.625,0,0,0,2.678-.372,5.223,5.223,0,0,0,3.347-4.76A5.071,5.071,0,0,0,51.4,12.26C50.356,11,48.646,10.4,46.042,10.4H40.687V26.169h3.868v-5.5Zm0-7.587H45.6c1.934,0,2.826.744,2.826,2.455a2.976,2.976,0,0,1-.818,2.157c-.372.372-.893.446-2.231.446H44.48V13.078ZM15.992,26.169l-5.058-7.81H9.6l4.537-7.884H10.785L6.174,18.433l4.984,7.736Z" transform="translate(0.074 -2.664)"/><path class="a" d="M112.365,0h-2.752c6.4,3.793,10.339,8.256,10.339,13.091,0,14.281-30.348,24.843-67.315,24.843-21.347,0-40.389-3.719-52.736-9.446v3.05c12.719,5.876,31.612,9.521,52.736,9.521,40.017-.149,69.324-12.273,69.324-27.3,0-5.058-3.5-9.744-9.6-13.761" transform="translate(0.1)"/></g><g transform="translate(135.2 7.587)"><path class="a" d="M183.436,19.128c-.074-1.636-.074-2.529-.074-4.165,0-1.785,0-2.752.074-4.463H181.8c.074,1.785.074,2.752.074,4.463,0,1.636,0,2.6-.074,4.165Z" transform="translate(-181.8 -10.277)"/><path class="a" d="M193.751,19.128h1.488c-.074-1.636-.074-2.529-.074-4.165,0-1.785,0-2.752.074-4.463h-1.413c.074,2.083.074,3.719.074,6.4-1.041-1.636-2.752-4.091-4.388-6.4H187.8c.074,1.785.074,2.752.074,4.463,0,1.636,0,2.6-.074,4.165h1.413c-.074-2.306-.074-3.868-.074-6.843C190.329,14.07,192.189,16.748,193.751,19.128Z" transform="translate(-183.337 -10.277)"/><path class="a" d="M205.086,19.128c-.074-1.785-.074-2.752-.074-4.463,0-1.19,0-2.008.074-3.05,1.041,0,2.231,0,2.9.074V10.5h-7.141l-.446,1.19c.893-.074,1.785-.074,3.05-.074.074,1.041.074,1.934.074,3.05,0,1.785,0,2.752-.074,4.463Z" transform="translate(-186.565 -10.277)"/><path class="a" d="M218.284,19.154l.446-1.19c-.893.074-2.6.074-3.868.074,0-.893-.074-1.785-.074-2.826,1.19,0,2.529,0,3.347.074V14.1c-.818.074-2.157.074-3.347.074,0-.893,0-1.711.074-2.6,1.264,0,2.752,0,3.5.074V10.6H213.3c.074,1.785.074,2.752.074,4.463,0,1.636,0,2.6-.074,4.165Z" transform="translate(-189.87 -10.302)"/><path class="a" d="M229.651,12.88c0-1.636-1.339-2.38-3.5-2.38H223.7c.074,1.711.074,2.752.074,4.463,0,1.636,0,2.6-.074,4.165h1.636c-.074-1.041-.074-2.306-.074-3.57H226.6c.6,1.19,1.339,2.752,2.008,3.868l1.636-.6a37.84,37.84,0,0,1-2.231-3.719A2.418,2.418,0,0,0,229.651,12.88Zm-3.719,1.636h-.744c0-.744,0-2.157.074-2.9h.744c1.339,0,2.157.521,2.157,1.488C228.089,14,227.345,14.517,225.931,14.517Z" transform="translate(-192.534 -10.277)"/><path class="a" d="M242.864,14.963c0-1.785,0-2.752.074-4.463h-1.413c.074,2.083.074,3.719.074,6.4-1.041-1.636-2.752-4.091-4.389-6.4H235.5c.074,1.785.074,2.752.074,4.463,0,1.636,0,2.6-.074,4.165h1.413c-.074-2.306-.074-3.868-.074-6.843,1.264,1.785,3.05,4.463,4.686,6.843h1.488A38.288,38.288,0,0,1,242.864,14.963Z" transform="translate(-195.557 -10.277)"/><path class="a" d="M253.43,10.4h-1.488C250.9,13,249.116,17.02,248,19.1h1.488c.372-.744.669-1.562,1.041-2.455h3.645c.3.818.669,1.711.893,2.455h1.785C255.736,16.425,254.322,12.929,253.43,10.4Zm-2.38,5.207c.521-1.339,1.116-2.678,1.488-3.719.372,1.041.893,2.455,1.339,3.719Z" transform="translate(-198.759 -10.251)"/><path class="a" d="M259.4,11.716c.893-.074,1.785-.074,3.05-.074.074,1.041.074,1.934.074,3.05,0,1.785,0,2.752-.074,4.463h1.636c-.074-1.785-.074-2.752-.074-4.463,0-1.19,0-2.008.074-3.05,1.041,0,2.231,0,2.9.074V10.6h-7.141Z" transform="translate(-201.68 -10.302)"/><path class="a" d="M273.936,19.128c-.074-1.636-.074-2.529-.074-4.165,0-1.785,0-2.752.074-4.463H272.3c.074,1.785.074,2.752.074,4.463,0,1.636,0,2.6-.074,4.165Z" transform="translate(-204.985 -10.277)"/><path class="a" d="M282.312,19.2a4.412,4.412,0,0,0,4.612-4.612,4.279,4.279,0,0,0-4.612-4.389,4.454,4.454,0,0,0-4.612,4.612C277.7,17.489,279.56,19.2,282.312,19.2Zm0-7.884c1.785,0,2.9,1.339,2.9,3.422s-1.116,3.422-2.9,3.422-2.9-1.339-2.9-3.422C279.411,12.729,280.526,11.316,282.312,11.316Z" transform="translate(-206.368 -10.2)"/><path class="a" d="M299.425,10.5c.074,2.083.074,3.719.074,6.4-1.041-1.636-2.752-4.091-4.388-6.4H293.4c.074,1.785.074,2.752.074,4.463,0,1.636,0,2.6-.074,4.165h1.413c-.074-2.306-.074-3.868-.074-6.843,1.264,1.785,3.05,4.463,4.686,6.843h1.488c-.074-1.636-.074-2.529-.074-4.165,0-1.785,0-2.752.074-4.463Z" transform="translate(-210.39 -10.277)"/><path class="a" d="M309.942,10.4C308.9,13,307.116,17.02,306,19.1h1.488c.372-.744.669-1.562,1.041-2.455h3.645c.3.818.669,1.711.893,2.455h1.785c-1.19-2.752-2.6-6.248-3.57-8.7h-1.339Zm-.967,5.207c.521-1.339,1.116-2.678,1.488-3.719.372,1.041.893,2.455,1.339,3.719Z" transform="translate(-213.618 -10.251)"/><path class="a" d="M322.136,18.013c0-1.041-.074-1.934-.074-3.05,0-1.785,0-2.752.074-4.463H320.5c.074,1.785.074,2.752.074,4.463,0,1.636,0,2.6-.074,4.165h5.058l.446-1.19C325.186,18.013,323.475,18.013,322.136,18.013Z" transform="translate(-217.333 -10.277)"/><path class="a" d="M183.462,32.063c0-1.785,0-2.752.074-4.463H181.9c.074,1.785.074,2.752.074,4.463,0,1.636,0,2.6-.074,4.165h5.058l.446-1.19c-.893.074-2.6.074-3.942.074C183.462,34.146,183.462,33.253,183.462,32.063Z" transform="translate(-181.826 -14.658)"/><path class="a" d="M194.842,27.5c-1.041,2.6-2.826,6.62-3.942,8.7h1.488c.372-.744.669-1.562,1.041-2.455h3.645c.3.818.669,1.711.893,2.455h1.785c-1.19-2.752-2.6-6.248-3.57-8.7ZM193.8,32.707c.521-1.339,1.116-2.678,1.488-3.719.372,1.041.893,2.455,1.339,3.719Z" transform="translate(-184.131 -14.632)"/><path class="a" d="M211.525,27.6c.074,2.083.074,3.719.074,6.4-1.041-1.636-2.752-4.091-4.389-6.4H205.5c.074,1.785.074,2.752.074,4.463,0,1.636,0,2.6-.074,4.165h1.413c-.074-2.306-.074-3.868-.074-6.843,1.264,1.785,3.05,4.463,4.686,6.843h1.488c-.074-1.636-.074-2.529-.074-4.165,0-1.785,0-2.752.074-4.463Z" transform="translate(-187.872 -14.658)"/><path class="a" d="M225.048,32.409a8.541,8.541,0,0,1,.074,1.413,7.648,7.648,0,0,1-.074,1.339,6.671,6.671,0,0,1-1.339.149,3.188,3.188,0,0,1-3.2-3.422c0-2.083,1.19-3.347,3.5-3.347a5.466,5.466,0,0,1,2.231.521l.372-1.041a7.253,7.253,0,0,0-2.752-.521c-3.05,0-5.058,1.934-5.058,4.76a4.358,4.358,0,0,0,4.612,4.165,8,8,0,0,0,3.2-.521,15.546,15.546,0,0,1-.074-1.86,13.166,13.166,0,0,1,.074-1.711l-1.562.074Z" transform="translate(-191.279 -14.632)"/><path class="a" d="M238.951,27.6c.074,1.785.074,3.422.074,5.132,0,1.934-.893,2.455-2.157,2.455-1.339,0-2.231-.669-2.231-2.455s0-3.5.074-5.132H233c.074,1.413.074,2.529.074,3.57v2.083c0,2.157,1.562,3.2,3.645,3.2,2.157,0,3.645-1.116,3.645-3.2,0-.669-.074-1.339-.074-2.008,0-1.116,0-2.306.074-3.57l-1.413-.074Z" transform="translate(-194.917 -14.658)"/><path class="a" d="M248.642,27.5c-1.041,2.6-2.826,6.62-3.942,8.7h1.488c.372-.744.669-1.562,1.041-2.455h3.645c.3.818.669,1.711.893,2.455h1.785c-1.19-2.752-2.6-6.248-3.57-8.7Zm-.967,5.207c.521-1.339,1.116-2.678,1.488-3.719.372,1.041.893,2.455,1.339,3.719Z" transform="translate(-197.914 -14.632)"/><path class="a" d="M264.548,32.409a8.542,8.542,0,0,1,.074,1.413,7.65,7.65,0,0,1-.074,1.339,6.671,6.671,0,0,1-1.339.149,3.188,3.188,0,0,1-3.2-3.422c0-2.083,1.19-3.347,3.5-3.347a5.466,5.466,0,0,1,2.231.521l.372-1.041a7.254,7.254,0,0,0-2.752-.521c-3.05,0-5.058,1.934-5.058,4.76a4.358,4.358,0,0,0,4.612,4.165,8,8,0,0,0,3.2-.521,15.543,15.543,0,0,1-.074-1.86,13.163,13.163,0,0,1,.074-1.711l-1.562.074Z" transform="translate(-201.398 -14.632)"/><path class="a" d="M274.088,32.386c1.19,0,2.529,0,3.347.074V31.27c-.818.074-2.157.074-3.347.074,0-.893,0-1.711.074-2.6,1.264,0,2.752,0,3.5.074V27.7H272.6c.074,1.785.074,2.752.074,4.463,0,1.636,0,2.6-.074,4.165h4.984l.446-1.19c-.893.074-2.6.074-3.868.074C274.088,34.32,274.088,33.427,274.088,32.386Z" transform="translate(-205.062 -14.683)"/><path class="a" d="M286.565,31.368,285.673,31c-1.116-.521-1.413-.893-1.413-1.413,0-.669.521-1.041,1.636-1.041a4.938,4.938,0,0,1,1.934.446l.446-1.041a4.841,4.841,0,0,0-2.455-.446c-1.86,0-3.124,1.041-3.124,2.306a2.56,2.56,0,0,0,1.785,2.38l1.041.446c1.041.521,1.339.818,1.339,1.488s-.6,1.19-1.636,1.19a6.513,6.513,0,0,1-2.38-.521l-.446,1.041a6.853,6.853,0,0,0,2.826.6c1.785,0,3.2-1.041,3.2-2.455A2.668,2.668,0,0,0,286.565,31.368Z" transform="translate(-207.572 -14.632)"/></g></g></svg>